:FULLY-SPECIFIED
:FORCE-ALL-JOINTS-BE-3DOF
:DEGREES
713
root 5.16782 19.2843 7.24784 -52.1071 -56.8228 58.8455
lfemur -40.0084 2.10333 17.5015
ltibia 93.4089 0 0
lfoot 5.17832 -4.1748 0
ltoes 28.6336 0 0
rfemur -9.45222 -8.28134 2.74818
rtibia 38.1194 0 0
rfoot 29.5659 7.34455 0
rtoes 6.69561 0 0
lowerback 2.08703 0.873031 -1.0115
upperback -2.20799 1.0153 -1.9105
thorax -3.3534 0.503526 -1.34946
lowerneck -6.82208 -5.72278 -0.340959
upperneck 1.75096 -7.84678 4.06161
head 1.89863 -3.8402 1.05224
lclavicle -4.86984e-014 -1.64085e-015 0
lhumerus 2.88884 -15.6511 16.6211
lradius 65.6544 0 0
lwrist 28.8742 0 0
lhand -24.7198 -5.77004 0
lfingers 7.12502 0 0
lthumb 1.78511 24.2732 0
rclavicle -4.86984e-014 -1.64085e-015 0
rhumerus -3.74761 -2.91793 -18.3387
rradius 101.253 0 0
rwrist -7.73252 0 0
rhand -34.3851 -37.3567 0
rfingers 7.12502 0 0
rthumb -7.55097 -787.196 0
714
root 5.1523 19.2551 7.47715 -57.9616 -56.1989 63.7592
lfemur -39.2146 1.31853 16.641
ltibia 90.3799 0 0
lfoot 4.82366 -4.64539 0
ltoes 27.9374 0 0
rfemur -10.1411 -9.21355 2.28775
rtibia 42.0089 0 0
rfoot 29.8016 7.6569 0
rtoes 7.76262 0 0
lowerback 2.04795 1.19473 -0.896691
upperback -2.22425 1.45113 -1.85573
thorax -3.33665 0.719111 -1.37328
lowerneck -6.86984 -5.81703 -0.372222
upperneck 1.6009 -7.96669 4.00372
head 1.85912 -3.90483 1.03532
lclavicle -4.96417e-014 -3.48931e-015 0
lhumerus 0.353584 -15.4844 17.8343
lradius 64.7832 0 0
lwrist 28.628 0 0
lhand -24.7058 -5.69465 0
lfingers 7.12502 0 0
lthumb 1.79857 24.3475 0
rclavicle -4.96417e-014 -3.48931e-015 0
rhumerus -1.51677 -2.24727 -19.1848
rradius 101.004 0 0
rwrist -7.7608 0 0
rhand -34.2306 -37.08 0
rfingers 7.12502 0 0
rthumb -7.40187 -786.924 0
715
root 5.1362 19.2237 7.7075 -63.8694 -55.5219 68.7615
lfemur -38.3968 0.533002 15.7418
ltibia 87.2738 0 0
lfoot 4.44073 -5.11074 0
ltoes 27.2238 0 0
rfemur -10.865 -10.172 1.83892
rtibia 45.9732 0 0
rfoot 30.0169 7.96097 0
rtoes 8.84178 0 0
lowerback 2.00717 1.51938 -0.782542
upperback -2.24031 1.89106 -1.7999
thorax -3.31829 0.93674 -1.39594
lowerneck -6.91948 -5.91318 -0.404164
upperneck 1.44812 -8.08904 3.94609
head 1.81918 -3.97069 1.01847
lclavicle -5.05366e-014 -5.37526e-015 0
lhumerus -2.24786 -15.3394 19.1244
lradius 63.9034 0 0
lwrist 28.3743 0 0
lhand -24.6821 -5.61384 0
lfingers 7.12502 0 0
lthumb 1.82145 24.4266 0
rclavicle -5.05366e-014 -5.37526e-015 0
rhumerus 0.725272 -1.56264 -20.0803
rradius 100.728 0 0
rwrist -7.79171 0 0
rhand -34.0702 -36.8029 0
rfingers 7.12502 0 0
rthumb -7.24702 -786.652 0
716
root 5.11947 19.1902 7.93865 -69.8085 -54.793 73.8426
lfemur -37.5593 -0.250623 14.8084
ltibia 84.1039 0 0
lfoot 4.03189 -5.56905 0
ltoes 26.4958 0 0
rfemur -11.6192 -11.1525 1.40264
rtibia 49.9958 0 0
rfoot 30.2109 8.25506 0
rtoes 9.92785 0 0
lowerback 1.9649 1.846 -0.6693
upperback -2.25609 2.33377 -1.74334
thorax -3.29843 1.15576 -1.41757
lowerneck -6.97064 -6.01086 -0.436655
upperneck 1.29309 -8.21331 3.8889
head 1.77889 -4.03752 1.00177
lclavicle -5.13825e-014 -7.29035e-015 0
lhumerus -4.90516 -15.2145 20.4845
lradius 63.0184 0 0
lwrist 28.114 0 0
lhand -24.6493 -5.52827 0
lfingers 7.12502 0 0
lthumb 1.85302 24.51 0
rclavicle -5.13825e-014 -7.29035e-015 0
rhumerus 2.97044 -0.865041 -21.0222
rradius 100.429 0 0
rwrist -7.82439 0 0
rhand -33.9044 -36.5254 0
rfingers 7.12502 0 0
rthumb -7.08692 -786.38 0
717
root 5.10208 19.1548 8.17033 -75.7569 -54.013 78.9926
lfemur -36.7061 -1.02972 13.8454
ltibia 80.8834 0 0
lfoot 3.59951 -6.01854 0
ltoes 25.7564 0 0
rfemur -12.3989 -12.1507 0.979872
rtibia 54.0602 0 0
rfoot 30.383 8.53747 0
rtoes 11.0156 0 0
lowerback 1.92137 2.17363 -0.557209
upperback -2.2715 2.77791 -1.68636
thorax -3.27717 1.37551 -1.43829
lowerneck -7.02297 -6.10966 -0.469563
upperneck 1.1363 -8.339 3.83233
head 1.73834 -4.10504 0.985257
lclavicle -5.21791e-014 -9.22622e-015 0
lhumerus -7.60799 -15.108 21.9077
lradius 62.1313 0 0
lwrist 27.8476 0 0
lhand -24.6083 -5.43861 0
lfingers 7.12502 0 0
lthumb 1.89255 24.597 0
rclavicle -5.21791e-014 -9.22622e-015 0
rhumerus 5.21066 -0.155456 -22.0077
rradius 100.107 0 0
rwrist -7.85797 0 0
rhand -33.7336 -36.2476 0
rfingers 7.12502 0 0
rthumb -6.92206 -786.107 0
718
root 5.08397 19.1176 8.40228 -81.6926 -53.183 84.2018
lfemur -35.8414 -1.80167 12.857
ltibia 77.6256 0 0
lfoot 3.14596 -6.45741 0
ltoes 25.0083 0 0
rfemur -13.1995 -13.1624 0.571584
rtibia 58.1498 0 0
rfoot 30.5325 8.80649 0
rtoes 12.0998 0 0
lowerback 1.8768 2.50129 -0.446516
upperback -2.28648 3.22218 -1.62928
thorax -3.25461 1.59535 -1.45823
lowerneck -7.07612 -6.20922 -0.502758
upperneck 0.978212 -8.46562 3.77655
head 1.69761 -4.17299 0.968998
lclavicle -5.29259e-014 -1.11745e-014 0
lhumerus -10.346 -15.0183 23.387
lradius 61.2455 0 0
lwrist 27.5758 0 0
lhand -24.5598 -5.34549 0
lfingers 7.12502 0 0
lthumb 1.93929 24.687 0
rclavicle -5.29259e-014 -1.11745e-014 0
rhumerus 7.43788 0.565116 -23.0338
rradius 99.7664 0 0
rwrist -7.89162 0 0
rhand -33.5584 -35.9696 0
rfingers 7.12502 0 0
rthumb -6.75297 -785.834 0
719
root 5.06508 19.0789 8.63427 -87.5938 -52.3039 89.4604
lfemur -34.9693 -2.56385 11.8479
ltibia 74.3437 0 0
lfoot 2.67363 -6.88385 0
ltoes 24.2546 0 0
rfemur -14.0163 -14.1834 0.178734
rtibia 62.2482 0 0
rfoot 30.6585 9.06042 0
rtoes 13.1753 0 0
lowerback 1.83139 2.828 -0.337466
upperback -2.30094 3.66524 -1.57241
thorax -3.23085 1.8146 -1.47752
lowerneck -7.12973 -6.30914 -0.536109
upperneck 0.819302 -8.59267 3.72174
head 1.65678 -4.24112 0.953048
lclavicle -5.36226e-014 -1.31269e-014 0
lhumerus -13.1089 -14.9437 24.9154
lradius 60.3643 0 0
lwrist 27.2994 0 0
lhand -24.5045 -5.24958 0
lfingers 7.12502 0 0
lthumb 1.9925 24.7794 0
rclavicle -5.36226e-014 -1.31269e-014 0
rhumerus 9.64403 1.29568 -24.0979
rradius 99.4081 0 0
rwrist -7.92446 0 0
rhand -33.3794 -35.6915 0
rfingers 7.12502 0 0
rthumb -6.58013 -785.561 0
720
root 5.04537 19.0387 8.86602 -93.4383 -51.3769 94.7586
lfemur -34.094 -3.31362 10.8225
ltibia 71.051 0 0
lfoot 2.18488 -7.29608 0
ltoes 23.4981 0 0
rfemur -14.8444 -15.2094 -0.197716
rtibia 66.3387 0 0
rfoot 30.7605 9.29757 0
rtoes 14.2368 0 0
lowerback 1.78538 3.1528 -0.230305
upperback -2.3148 4.10577 -1.51608
thorax -3.206 2.03262 -1.49628
lowerneck -7.18344 -6.40904 -0.569486
upperneck 0.660046 -8.71963 3.66808
head 1.61594 -4.30915 0.937464
lclavicle -5.42686e-014 -1.50749e-014 0
lhumerus -15.8864 -14.8826 26.4861
lradius 59.4911 0 0
lwrist 27.019 0 0
lhand -24.4434 -5.15154 0
lfingers 7.12502 0 0
lthumb 2.05145 24.8736 0
rclavicle -5.42686e-014 -1.50749e-014 0
rhumerus 11.821 2.03525 -25.1969
rradius 99.0344 0 0
rwrist -7.95564 0 0
rhand -33.197 -35.4134 0
rfingers 7.12502 0 0
rthumb -6.40407 -785.289 0
